<svg width="217" height="37" viewBox="0 0 217 37" fill="none" xmlns="http://www.w3.org/2000/svg">
<path d="M136.405 28.2687H133.591C133.481 27.6108 133.299 25.5641 133.299 24.4314C131.581 27.2087 128.913 28.8169 123.834 28.8169C115.647 28.8169 110.641 23.4448 110.641 15.3681C110.641 7.73012 115.83 1.77344 124.492 1.77344C132.239 1.77344 135.564 5.7202 136.551 9.55753H132.751C131.763 7.10886 129.498 4.76996 124.454 4.76996C117.95 4.76996 114.514 9.33832 114.514 15.1489C114.514 21.2884 117.986 25.7837 124.382 25.7837C129.79 25.7837 132.86 23.0427 132.86 17.9265V17.1588H124.454V14.0525H136.405L136.405 28.2687Z" fill="white"/>
<path d="M140.867 28.2635V0.78125H144.339V28.2635H140.867Z" fill="white"/>
<path d="M167.141 19.0155C167.141 24.1317 163.816 28.7731 157.164 28.7731C150.915 28.7731 147.406 24.1317 147.406 19.0155C147.406 13.7164 151.134 9.25781 157.347 9.25781C163.742 9.25781 167.141 14.1181 167.141 19.0155ZM150.988 19.0155C150.988 22.5605 153.217 25.9224 157.274 25.9224C161.513 25.9224 163.56 22.7794 163.56 19.0518C163.56 15.3606 161.331 12.1082 157.201 12.1082C152.998 12.1082 150.988 15.3243 150.988 19.0155Z" fill="white"/>
<path d="M170.326 0.78125H173.798V12.6222C174.711 11.1969 176.685 9.26001 180.668 9.26001C185.821 9.26001 189.548 13.3165 189.548 18.6887C189.548 24.9016 185.711 28.7753 180.449 28.7753C176.465 28.7753 174.675 27.0573 173.724 25.4128C173.688 26.2903 173.688 27.6055 173.615 28.2635H170.289C170.326 25.9246 170.326 24.0241 170.326 21.9047V0.78125ZM179.901 12.1835C175.661 12.1835 173.652 15.1436 173.652 18.981C173.652 23.1836 176.063 25.8148 179.901 25.8148C184.213 25.8148 185.967 22.4529 185.967 18.7981C185.967 15.6554 184.176 12.1835 179.901 12.1835Z" fill="white"/>
<path d="M209.036 23.6933C209.036 25.484 209.146 27.8229 209.219 28.2613H205.893C205.747 27.6033 205.711 26.1783 205.674 25.5567C204.724 27.4572 202.604 28.7731 198.694 28.7731C193.468 28.7731 191.531 25.5937 191.531 22.8158C191.531 18.1016 195.843 16.786 201.143 16.786H205.637V15.7994C205.637 13.7895 204.761 11.889 200.813 11.889C197.269 11.889 196.465 13.4605 196.063 15.1414H192.591C192.81 12.6931 194.455 9.25781 200.813 9.25781C207.538 9.25781 209.036 12.547 209.036 15.5802V23.6933ZM205.637 19.2347H201.215C196.977 19.2347 194.967 20.1846 194.967 22.6696C194.967 24.4974 196.319 26.0322 199.388 26.0322C204.322 26.0322 205.637 23.1814 205.637 20.0384V19.2347Z" fill="white"/>
<path d="M213.523 28.2635V0.78125H216.995V28.2635H213.523Z" fill="white"/>
<path d="M80.4365 13.3121H90.5975C94.148 13.3121 96.4266 15.2198 96.4266 18.0284C96.4266 20.9959 94.042 23.1156 90.5975 23.1156H80.4365V13.3121ZM80.4365 28.2558H90.7035C98.1224 28.2558 101.938 23.5925 101.938 18.0284C101.938 12.5172 98.0694 8.17188 90.7035 8.17188H74.8724V36.1516H80.4365V28.2558ZM5.51115 20.572H26.2259V8.17188H20.7147V15.4847H0V28.2558H5.51115V20.572ZM69.5732 8.17188V28.2558H64.062V12.9941L50.5491 28.6267L37.0362 12.9411V28.2558H31.5251V8.17188H39.9508L50.6551 20.572L61.4654 8.17188H69.5732Z" fill="white"/>
<path d="M26.2259 23.1156L20.7147 26.7191V36.1516H26.2259V23.1156ZM0 0.117188H5.51115V9.39076L0 12.9942V0.117188Z" fill="white"/>
</svg>
